<svg xmlns="http://www.w3.org/2000/svg" width="49.574" height="47.758" viewBox="0 0 49.574 47.758">
  <g id="noun_Siren_3020556" transform="translate(0 -0.879)">
    <rect id="Rectangle_6" data-name="Rectangle 6" width="8.385" height="3.094" transform="matrix(0.707, -0.707, 0.707, 0.707, 35.291, 12.974)" fill="#a372bc"/>
    <rect id="Rectangle_7" data-name="Rectangle 7" width="8.385" height="3.094" transform="translate(0 24.119)" fill="#a372bc"/>
    <rect id="Rectangle_8" data-name="Rectangle 8" width="8.385" height="3.094" transform="translate(41.189 24.119)" fill="#a372bc"/>
    <rect id="Rectangle_9" data-name="Rectangle 9" width="3.094" height="8.384" transform="translate(6.166 9.233) rotate(-44.999)" fill="#a372bc"/>
    <rect id="Rectangle_10" data-name="Rectangle 10" width="3.094" height="8.385" transform="translate(23.24 0.879)" fill="#a372bc"/>
    <path id="Path_76" data-name="Path 76" d="M10.519,38.882H38.365V26.16a13.923,13.923,0,1,0-27.846,0ZM22.177,19.243a13.35,13.35,0,0,0,0,16.643,8.411,8.411,0,0,1,0-16.643Z" transform="translate(0.345 0.372)" fill="#a372bc"/>
    <path id="Path_77" data-name="Path 77" d="M8.014,39.885l-1.35,7.473H42.473l-1.35-7.473Z" transform="translate(0.219 1.279)" fill="#a372bc"/>
  </g>
</svg>
