<svg id="icon-gps" xmlns="http://www.w3.org/2000/svg" width="32.157" height="51.965" viewBox="0 0 32.157 51.965">
  <path id="Path_18" data-name="Path 18" d="M19.1,0c8.342,0,15.1,7.245,15.1,16.448,0,7.441-10.527,19.385-15.1,27.413C14.726,36.029,4,23.5,4,16.448,4,7.245,10.753,0,19.1,0Zm0,4.9a9.727,9.727,0,0,1,9.931,9.595,9.832,9.832,0,0,1-19.664,0A9.68,9.68,0,0,1,19.1,4.9Zm4.568,5.874.2.2A.193.193,0,0,1,23.664,10.77Z" transform="translate(-3.103)" fill="#FFA500" fill-rule="evenodd"/>
  <path id="Path_19" data-name="Path 19" d="M20.74,192c16.831,2.084,15.228,15.512-4.609,15.512-19.636,0-21.239-13.428-4.609-15.512l1,1.852C3.508,195.01-3.1,199.64,5.512,203.576c12.824,5.788,34.464-2.084,21.44-7.872a24.069,24.069,0,0,0-7.213-1.852Z" transform="translate(-0.127 -155.547)" fill="#FFA500"/>
  <path id="Path_20" data-name="Path 20" d="M56.125,211c8.335.926,7.409,6.714-2.315,6.714S43.391,211.926,51.494,211l.695.926c-4.63.463-7.872,2.547-3.7,4.167,6.483,2.315,17.133-.926,10.65-3.473a9.29,9.29,0,0,0-3.473-.695Z" transform="translate(-37.808 -170.148)" fill="#FFA500"/>
  <circle id="Ellipse_25" data-name="Ellipse 25" cx="6.946" cy="6.946" r="6.946" transform="translate(9.065 7.418)" fill="#FFA500"/>
</svg>
